<?xml version="1.0" encoding="UTF-8"?>
<!-- Generated by Pixelmator Pro 3.4.3 -->
<svg width="85" height="98" viewBox="0 0 85 98" xmlns="http://www.w3.org/2000/svg">
    <g id="BACKGROUND"/>
    <g id="OBJECTS">
        <g id="Group"/>
        <g id="g1">
            <path id="Path" fill="#ffffff" stroke="none" d="M 73.518005 32.729004 C 76.958008 24.748993 68.122986 9.415009 68.753998 19.509003 C 68.755005 19.562988 68.756989 19.621002 68.757996 19.674988 C 68.475006 38.597992 43.734985 49.324005 41.820007 73.529999 C 41.812012 73.584991 41.804993 73.643005 41.796997 73.697998 C 37.463013 95.815979 62.184998 88.449005 67.664001 75.445007 C 67.73999 75.265015 67.792999 75.072998 67.798004 74.877991 C 67.843994 73.23999 66.505005 72.363007 65.002991 71.985992 C 59.679993 71.408997 61.337006 65.53299 63.286987 62.330017 C 65.223999 58.230011 70.613007 56.825989 72.269989 52.747986 C 72.450989 52.304016 72.479004 51.794983 72.269012 51.364014 C 71.746002 50.294006 70.28299 50.424988 68.971008 50.377014 C 67.756012 50.333008 67.007996 49.338013 67.303986 48.15799 C 68.278015 44.281982 73.203003 36.268982 73.518005 32.729004 Z"/>
            <path id="path1" fill="#ffffff" stroke="none" d="M 39.644012 44.393982 C 39.579987 44.460999 39.514008 44.529999 39.450012 44.596008 C 36.496002 48.122009 38.498993 54.130005 43.467987 53.951996 C 55.303009 52.718994 48.190002 36.523987 39.644012 44.393982 Z"/>
            <path id="path2" fill="#ffffff" stroke="none" d="M 43.714996 23.744019 C 43.631012 19.643005 41.890991 15.272003 38.221008 13.148987 C 38.106995 13.083008 37.985992 13.028015 37.859985 12.987 C 31.075989 10.773987 16.779999 17.794983 16.197998 25.575989 C 16.199005 25.694 16.200989 25.813995 16.203003 25.932007 C 16.68399 30.306 23.972992 28.492981 23.201996 33.531006 C 22.458008 41.807983 15.112 43.916992 12.681 47.632019 C 12.018005 48.644989 12.575012 50.042999 13.756012 50.311005 C 15.239014 50.647003 17.145996 50.5 17.484009 52.171997 C 17.533997 52.419006 17.518005 52.677002 17.458008 52.921997 C 15.463013 61.065002 10.239014 68.869019 12.065002 77.651001 C 12.597992 80.497009 13.781006 84.416992 16.990997 85.080994 C 20.190002 85.391998 16.769012 76.908997 19.085999 72.697998 C 26.709991 56.264008 44.227997 43.414001 43.714996 23.744019 Z"/>
        </g>
        <g id="g2">
            <g id="g3"/>
        </g>
        <g id="g4"/>
    </g>
    <g id="TEXTS">
        <g id="g5"/>
        <g id="g6"/>
        <g id="g7"/>
        <g id="g8"/>
    </g>
</svg>
